<svg width="59" height="30" viewBox="0 0 59 30" xmlns="http://www.w3.org/2000/svg" xmlns:xlink="http://www.w3.org/1999/xlink"><defs><rect id="a" width="57.399" height="29.452" rx="1.991"/><filter x="-50%" y="-50%" width="200%" height="200%" filterUnits="objectBoundingBox" id="b"><feOffset dy="2" in="SourceAlpha" result="shadowOffsetInner1"/><feComposite in="shadowOffsetInner1" in2="SourceAlpha" operator="arithmetic" k2="-1" k3="1" result="shadowInnerInner1"/><feColorMatrix values="0 0 0 0 1 0 0 0 0 0.916110138 0 0 0 0 0.72251815 0 0 0 1 0" in="shadowInnerInner1"/></filter></defs><g fill="none" fill-rule="evenodd"><g transform="translate(.673 .38)"><use fill="#F3B21C" xlink:href="#a"/><use fill="#000" filter="url(#b)" xlink:href="#a"/></g><path d="M2.1 5.85c0-1.1.885-1.995 1.983-1.995h48.225c1.095 0 1.358.628.542 1.36 0 0-6.525 7.63-25.154 10.017C14.03 16.984 3.53 27.912 3.53 27.912c-.79.755-1.43.477-1.43-.628V5.85z" fill="#FFC32A"/><path d="M12.234 23.202v-4.756h3.44c3.185 0 4.926-2.145 4.926-4.693 0-2.57-1.74-4.714-4.926-4.714H8.582V23.2h3.652zm2.952-7.94h-2.952v-3.038h2.952c.976 0 1.698.552 1.698 1.53 0 .955-.722 1.507-1.698 1.507zm19.13 7.94L31.43 18c1.315-.467 2.823-1.784 2.823-4.247 0-2.633-1.784-4.714-4.926-4.714h-7.092V23.2h3.652v-4.756h1.87l2.377 4.756h4.182zm-5.54-7.94h-2.89v-3.038h2.89c.954 0 1.76.552 1.76 1.508 0 .998-.806 1.53-1.76 1.53zm14.352 8.195c4.332 0 7.56-3.016 7.56-7.326s-3.228-7.324-7.56-7.324c-4.33 0-7.58 3.015-7.58 7.325 0 4.31 3.25 7.327 7.58 7.327zm0-3.228c-2.357 0-3.864-1.806-3.864-4.1 0-2.313 1.507-4.097 3.864-4.097 2.336 0 3.843 1.784 3.843 4.098 0 2.294-1.506 4.1-3.842 4.1z" fill="#FFF"/></g></svg>